<svg width="446" height="373" viewBox="0 0 446 373" fill="none" xmlns="http://www.w3.org/2000/svg">
<rect width="446" height="373" fill="white"/>
<path d="M256.994 194.681C277.13 174.545 277.13 141.899 256.994 121.763C236.859 101.628 204.212 101.628 184.077 121.763C163.941 141.899 163.941 174.545 184.077 194.681C204.212 214.817 236.859 214.817 256.994 194.681Z" fill="white"/>
<path d="M293.879 205.432L286.022 197.511L292.308 185.914C292.411 185.725 292.463 185.513 292.459 185.298C292.454 185.083 292.394 184.873 292.285 184.689C292.175 184.504 292.018 184.352 291.831 184.246C291.644 184.14 291.433 184.085 291.218 184.085C291.099 184.085 290.981 184.103 290.867 184.138C286.799 185.325 282.666 186.28 278.489 186.998C278.301 187.032 278.124 187.109 277.97 187.222C277.817 187.336 277.692 187.483 277.604 187.653C275.458 191.801 272.882 195.713 269.919 199.324C269.75 199.529 269.652 199.784 269.639 200.05C269.626 200.316 269.698 200.579 269.846 200.801L276.19 210.319C276.304 210.491 276.46 210.631 276.643 210.727C276.826 210.823 277.031 210.872 277.237 210.869C277.291 210.874 277.346 210.874 277.4 210.869C282.804 210.155 288.146 209.025 293.377 207.49C293.581 207.429 293.766 207.316 293.913 207.162C294.061 207.008 294.166 206.818 294.219 206.612C294.272 206.405 294.27 206.188 294.214 205.982C294.159 205.776 294.05 205.588 293.9 205.437L293.879 205.432ZM277.232 209.622L270.873 200.094C273.89 196.424 276.51 192.446 278.688 188.224C282.894 187.494 287.055 186.525 291.15 185.322L284.45 197.731L292.973 206.301C287.815 207.812 282.549 208.928 277.222 209.638L277.232 209.622Z" fill="#21324B"/>
<path d="M162.879 187.627C162.791 187.458 162.666 187.312 162.512 187.199C162.359 187.087 162.182 187.011 161.994 186.977C157.834 186.255 153.719 185.297 149.668 184.107C149.554 184.074 149.436 184.056 149.318 184.054C149.133 184.055 148.951 184.097 148.784 184.177C148.617 184.256 148.47 184.372 148.354 184.515C148.199 184.706 148.105 184.938 148.083 185.182C148.06 185.427 148.111 185.672 148.228 185.888L154.514 197.485L146.656 205.4C146.507 205.553 146.399 205.741 146.343 205.947C146.287 206.153 146.285 206.37 146.338 206.577C146.391 206.784 146.496 206.974 146.644 207.129C146.791 207.283 146.976 207.397 147.18 207.459C152.409 208.995 157.749 210.124 163.152 210.838H163.319C163.524 210.844 163.726 210.799 163.909 210.708C164.092 210.616 164.249 210.481 164.367 210.314L170.716 200.791C170.863 200.57 170.936 200.308 170.923 200.043C170.909 199.777 170.811 199.524 170.643 199.319C167.649 195.707 165.047 191.788 162.879 187.627ZM163.267 209.628C157.932 208.918 152.66 207.803 147.495 206.291L156.023 197.721L149.302 185.296C153.397 186.499 157.558 187.468 161.764 188.198C163.957 192.427 166.591 196.413 169.621 200.089L163.267 209.628Z" fill="#21324B"/>
<path d="M284.451 197.731L291.151 185.322C287.055 186.525 282.895 187.494 278.689 188.224C276.511 192.446 273.891 196.425 270.874 200.094L277.222 209.617C282.555 208.907 287.826 207.792 292.99 206.28L284.451 197.731Z" fill="#87CEEB"/>
<path d="M149.302 185.296L156.007 197.705L147.495 206.275C152.66 207.787 157.933 208.903 163.268 209.612L169.611 200.094C166.581 196.418 163.947 192.432 161.754 188.203C157.552 187.471 153.394 186.5 149.302 185.296Z" fill="#87CEEB"/>
<path d="M261.449 209.203H180.281L170.47 161.446H269.83L261.449 209.203Z" fill="url(#paint0_linear_1414_1198)"/>
<path d="M271.994 160.576H168.202V162.315H271.994V160.576Z" fill="#21324B"/>
<path d="M271.994 164.793H168.202V166.532H271.994V164.793Z" fill="#21324B"/>
<path d="M271.994 169.014H168.202V170.754H271.994V169.014Z" fill="#21324B"/>
<path d="M271.994 173.232H168.202V174.971H271.994V173.232Z" fill="#21324B"/>
<path d="M271.994 177.454H168.202V179.193H271.994V177.454Z" fill="#21324B"/>
<path d="M271.994 181.67H168.202V183.41H271.994V181.67Z" fill="#21324B"/>
<path d="M271.994 185.893H168.202V187.632H271.994V185.893Z" fill="#21324B"/>
<path d="M265.794 190.11H174.406V191.849H265.794V190.11Z" fill="#21324B"/>
<path d="M265.794 194.331H174.406V196.07H265.794V194.331Z" fill="#21324B"/>
<path d="M254.25 198.548H185.964V200.287H254.25V198.548Z" fill="#21324B"/>
<path d="M254.25 202.765H185.964V204.504H254.25V202.765Z" fill="#21324B"/>
<path d="M229.323 92.4884C230.032 94.0051 230.346 95.676 230.237 97.3465C230.129 99.017 229.6 100.633 228.701 102.045C227.802 103.457 226.562 104.62 225.094 105.425C223.627 106.231 221.98 106.653 220.306 106.653C218.632 106.653 216.985 106.231 215.517 105.425C214.05 104.62 212.809 103.457 211.91 102.045C211.011 100.633 210.483 99.017 210.374 97.3465C210.265 95.676 210.58 94.0051 211.288 92.4884C194.71 94.7732 179.617 103.266 169.059 116.251C158.501 129.235 153.266 145.743 154.411 162.439C155.556 179.135 162.996 194.774 175.228 206.195C187.459 217.617 203.571 223.969 220.306 223.969C237.041 223.969 253.152 217.617 265.384 206.195C277.615 194.774 285.056 179.135 286.201 162.439C287.346 145.743 282.11 129.235 271.553 116.251C260.995 103.266 245.902 94.7732 229.323 92.4884ZM220.303 206.61C207.935 206.516 196.066 201.721 187.103 193.198C178.141 184.675 172.755 173.062 172.039 160.714C171.324 148.367 175.331 136.209 183.249 126.708C191.167 117.206 202.403 111.072 214.677 109.55L220.303 108.905L225.929 109.55C238.203 111.072 249.439 117.206 257.357 126.708C265.275 136.209 269.282 148.367 268.567 160.714C267.851 173.062 262.466 184.675 253.503 193.198C244.54 201.721 232.671 206.516 220.303 206.61Z" fill="url(#paint1_linear_1414_1198)"/>
<path d="M157.645 168.847L157.247 166.584L152.967 167.338L152.705 165.835C152.627 165.394 152.377 165.002 152.01 164.745C151.644 164.488 151.19 164.387 150.749 164.465C150.307 164.543 149.915 164.793 149.658 165.16C149.402 165.527 149.301 165.981 149.379 166.422L149.641 167.92L150.442 172.451L150.578 173.242L150.704 173.949C150.782 174.39 151.032 174.782 151.399 175.039C151.765 175.296 152.219 175.397 152.661 175.319C153.102 175.241 153.494 174.991 153.751 174.624C154.008 174.258 154.108 173.804 154.03 173.363L153.768 171.859L158.032 171.105L157.645 168.847Z" fill="url(#paint2_linear_1414_1198)"/>
<path d="M138.792 167.663C136.566 167.233 134.26 167.561 132.244 168.596C128.844 170.408 129.022 172.97 129.148 173.677C129.148 173.797 129.185 173.866 129.185 173.866C129.185 173.866 129.185 173.934 129.211 174.054C129.336 174.761 130.044 177.229 133.862 177.768C136.112 178.054 138.393 177.574 140.337 176.406C143.112 174.834 146.074 173.617 149.153 172.786L148.315 168.072C145.136 168.335 141.936 168.198 138.792 167.663ZM133.873 169.874C131.589 170.833 130.604 172.064 130.206 173.017C130.206 173.017 130.023 170.235 134.187 168.921C134.187 168.921 137.126 167.957 138.834 168.957C137.138 168.964 135.458 169.274 133.873 169.874Z" fill="url(#paint3_linear_1414_1198)"/>
<path d="M163.363 120.508C163.473 120.316 163.545 120.104 163.574 119.885C163.603 119.665 163.588 119.442 163.531 119.228C163.473 119.014 163.374 118.813 163.24 118.637C163.105 118.461 162.936 118.314 162.744 118.203C162.553 118.092 162.341 118.021 162.121 117.992C161.901 117.963 161.678 117.977 161.464 118.035C161.25 118.092 161.049 118.191 160.874 118.326C160.698 118.461 160.55 118.629 160.44 118.821L159.68 120.131L157.375 124.122L156.977 124.814L156.616 125.437C156.419 125.824 156.379 126.271 156.502 126.686C156.626 127.101 156.904 127.453 157.28 127.67C157.655 127.886 158.099 127.95 158.521 127.849C158.942 127.747 159.308 127.488 159.544 127.124L160.303 125.804L164.059 127.973L165.206 125.982L166.354 123.997L162.603 121.828L163.363 120.508Z" fill="url(#paint4_linear_1414_1198)"/>
<path d="M147.088 120.649C150.226 121.227 153.277 122.199 156.171 123.541L158.571 119.35C155.961 117.515 153.594 115.357 151.525 112.928C150.094 111.179 148.116 109.961 145.91 109.471C142.138 108.669 140.629 110.749 140.273 111.367C140.24 111.423 140.211 111.481 140.184 111.54C140.184 111.54 140.142 111.598 140.079 111.702C139.718 112.326 138.675 114.667 141.253 117.533C142.794 119.196 144.849 120.294 147.088 120.649ZM147.188 110.948C147.188 110.948 150.058 112.095 150.724 113.96C149.419 112.882 147.932 112.044 146.334 111.488C143.971 110.76 142.426 111.069 141.504 111.524C141.504 111.524 143.154 109.277 147.209 110.948H147.188Z" fill="url(#paint5_linear_1414_1198)"/>
<path d="M199.5 89.4556L198.075 89.9795L193.743 91.5509L192.994 91.8286L192.319 92.0695C191.921 92.2397 191.603 92.556 191.431 92.9531C191.259 93.3503 191.246 93.7983 191.394 94.2048C191.543 94.6114 191.841 94.9457 192.228 95.139C192.616 95.3323 193.062 95.3698 193.476 95.2439L194.906 94.7201L196.389 98.7903L198.547 98.0045L200.705 97.2188L199.223 93.1486L200.653 92.6248C200.886 92.5709 201.104 92.468 201.295 92.3231C201.485 92.1781 201.642 91.9944 201.756 91.7841C201.869 91.5738 201.937 91.3417 201.955 91.1033C201.972 90.8648 201.938 90.6254 201.856 90.4009C201.774 90.1764 201.644 89.9719 201.477 89.8011C201.31 89.6303 201.108 89.4971 200.885 89.4102C200.663 89.3233 200.424 89.2847 200.185 89.2971C199.946 89.3094 199.713 89.3724 199.5 89.4818V89.4556Z" fill="url(#paint6_linear_1414_1198)"/>
<path d="M197.705 88.6804C196.889 85.6029 196.463 82.4351 196.437 79.2515C196.474 76.9847 195.749 74.7709 194.378 72.9655C192 69.9273 189.512 70.5507 188.836 70.7969C188.775 70.8182 188.716 70.8427 188.658 70.8702C188.596 70.8861 188.535 70.9053 188.475 70.9278C187.799 71.174 185.494 72.295 185.625 76.1661C185.735 78.4316 186.604 80.5941 188.092 82.3054C190.123 84.7644 191.835 87.4694 193.189 90.3567L197.705 88.6804ZM189.679 71.6979C189.679 71.6979 192.388 71.0326 194.394 74.9037C194.394 74.9037 195.855 77.6329 195.164 79.4872C194.859 77.8229 194.26 76.2263 193.393 74.7728C192.063 72.6931 190.68 71.9388 189.679 71.6979Z" fill="url(#paint7_linear_1414_1198)"/>
<path d="M248.301 92.0643L246.871 91.5405L242.544 89.969L241.795 89.6966L241.119 89.4504C240.718 89.355 240.296 89.41 239.932 89.6049C239.569 89.7999 239.289 90.1213 239.146 90.5084C239.004 90.8955 239.008 91.3214 239.158 91.7056C239.309 92.0898 239.594 92.4057 239.962 92.5934L241.397 93.1172L239.92 97.2188L242.078 98.0046L244.236 98.7903L245.719 94.7201L247.149 95.244C247.563 95.3699 248.009 95.3323 248.396 95.139C248.784 94.9458 249.082 94.6114 249.23 94.2049C249.379 93.7983 249.366 93.3503 249.194 92.9532C249.022 92.556 248.704 92.2398 248.306 92.0696L248.301 92.0643Z" fill="url(#paint8_linear_1414_1198)"/>
<path d="M252.136 70.912C252.076 70.8894 252.014 70.8702 251.952 70.8543C251.894 70.8269 251.835 70.8024 251.774 70.781C251.098 70.5348 248.605 69.9115 246.232 72.9497C244.861 74.7551 244.136 76.9688 244.173 79.2356C244.147 82.4193 243.721 85.587 242.906 88.6646L247.421 90.3094C248.775 87.4203 250.487 84.7134 252.518 82.2529C254.004 80.5425 254.871 78.3819 254.98 76.1188C255.111 72.2792 252.811 71.1582 252.136 70.912ZM253.744 77.6484C253.744 77.6484 253.115 80.6762 251.392 81.6557C252.227 80.1841 252.793 78.5751 253.063 76.9046C253.372 74.4478 252.801 72.9811 252.188 72.1534C252.188 72.1534 254.687 73.3897 253.744 77.6484Z" fill="url(#paint9_linear_1414_1198)"/>
<path d="M283.995 125.438L283.235 124.139L280.936 120.147L280.538 119.456L280.176 118.837C280.066 118.645 279.918 118.477 279.742 118.342C279.566 118.207 279.366 118.108 279.152 118.051C278.938 117.994 278.715 117.979 278.495 118.008C278.275 118.037 278.063 118.109 277.871 118.219C277.679 118.33 277.511 118.478 277.376 118.653C277.241 118.829 277.142 119.03 277.085 119.244C277.028 119.458 277.013 119.681 277.042 119.901C277.071 120.12 277.143 120.332 277.253 120.524L278.013 121.844L274.262 124.013L275.409 125.998L276.557 127.983L280.307 125.82L281.072 127.14C281.183 127.332 281.33 127.5 281.506 127.635C281.682 127.77 281.882 127.869 282.096 127.927C282.31 127.984 282.534 127.999 282.753 127.97C282.973 127.941 283.185 127.869 283.377 127.758C283.569 127.647 283.737 127.5 283.872 127.324C284.007 127.148 284.106 126.948 284.163 126.734C284.221 126.52 284.235 126.297 284.206 126.077C284.178 125.857 284.106 125.645 283.995 125.453V125.438Z" fill="url(#paint10_linear_1414_1198)"/>
<path d="M293.525 120.65C295.768 120.286 297.823 119.179 299.361 117.507C301.938 114.641 300.89 112.3 300.534 111.677C300.471 111.572 300.429 111.514 300.429 111.514C300.403 111.455 300.373 111.397 300.34 111.341C299.984 110.723 298.475 108.644 294.704 109.445C292.492 109.945 290.512 111.173 289.083 112.934C287.017 115.365 284.649 117.523 282.038 119.356L284.442 123.547C287.336 122.203 290.388 121.229 293.525 120.65ZM297.396 116.889C299.209 115.207 299.712 113.709 299.774 112.698C299.774 112.698 300.895 115.249 297.438 117.905C297.438 117.905 295.008 119.817 293.059 119.476C294.647 118.878 296.115 118.002 297.396 116.889Z" fill="url(#paint11_linear_1414_1198)"/>
<path d="M289.864 164.473C289.646 164.434 289.422 164.438 289.205 164.486C288.988 164.533 288.783 164.623 288.601 164.75C288.419 164.877 288.264 165.039 288.144 165.226C288.025 165.413 287.944 165.622 287.905 165.84L287.638 167.344L283.374 166.568L282.976 168.831L282.578 171.089L286.842 171.843L286.58 173.347C286.502 173.788 286.603 174.242 286.859 174.609C287.116 174.976 287.508 175.225 287.95 175.303C288.391 175.381 288.845 175.28 289.211 175.024C289.578 174.767 289.828 174.375 289.906 173.933L290.168 172.435L290.969 167.904L291.106 167.113L291.231 166.406C291.303 165.969 291.2 165.521 290.944 165.159C290.688 164.798 290.3 164.551 289.864 164.473Z" fill="url(#paint12_linear_1414_1198)"/>
<path d="M308.376 168.596C306.359 167.561 304.053 167.233 301.828 167.663C298.682 168.19 295.483 168.321 292.304 168.051L291.466 172.765C294.546 173.599 297.508 174.816 300.282 176.39C302.226 177.559 304.507 178.038 306.757 177.752C310.576 177.228 311.283 174.745 311.403 174.038C311.418 173.976 311.427 173.913 311.429 173.85C311.447 173.788 311.461 173.725 311.471 173.661C311.597 172.97 311.775 170.408 308.376 168.596ZM305.049 176.809C305.049 176.809 301.959 176.715 300.696 175.191C302.292 175.752 303.976 176.025 305.667 175.997C308.135 175.872 309.481 175.054 310.193 174.311C310.193 174.326 309.407 176.998 305.049 176.809Z" fill="url(#paint13_linear_1414_1198)"/>
<path d="M278.707 213.294L268.23 197.548C268.132 197.401 268.004 197.276 267.855 197.181C267.706 197.086 267.539 197.023 267.364 196.995C267.19 196.968 267.011 196.977 266.84 197.021C266.669 197.066 266.509 197.145 266.371 197.255C259.857 202.414 252.579 206.526 244.799 209.444C230.814 214.452 215.633 215.064 201.29 211.199C193.627 209.031 186.357 205.661 179.75 201.215C177.875 199.968 176.046 198.648 174.265 197.255C174.127 197.145 173.967 197.066 173.796 197.021C173.625 196.977 173.446 196.968 173.272 196.995C173.097 197.023 172.93 197.086 172.781 197.181C172.632 197.276 172.504 197.401 172.406 197.548L161.929 213.294C161.756 213.551 161.683 213.863 161.722 214.17C161.762 214.478 161.912 214.76 162.144 214.965C166.45 218.768 187.372 235.625 220.331 236.039C253.296 235.625 274.218 218.753 278.523 214.965C278.751 214.756 278.895 214.471 278.928 214.164C278.962 213.857 278.883 213.548 278.707 213.294Z" fill="#87CEEB"/>
<path d="M261.719 144.149C261.719 144.149 257.832 157.627 249.749 163.342C251.054 164.157 252.281 165.09 253.416 166.129C253.416 166.129 247.476 175.138 238.749 177.255C230.022 179.371 226.056 174.426 225.171 168.821L224.354 127.805H226.297C226.597 127.805 226.885 127.686 227.097 127.474C227.31 127.262 227.429 126.974 227.429 126.674V125.71C227.432 125.559 227.404 125.41 227.349 125.27C227.293 125.131 227.21 125.003 227.105 124.896C227 124.789 226.874 124.704 226.735 124.645C226.597 124.587 226.448 124.557 226.297 124.557H224.281L224.233 122.321V121.755L239.131 119.555C239.142 120.206 239.41 120.827 239.878 121.28C240.347 121.734 240.976 121.983 241.627 121.972C242.279 121.962 242.9 121.693 243.353 121.225C243.806 120.757 244.055 120.128 244.045 119.476V113.819C244.042 113.233 243.831 112.668 243.448 112.225C243.066 111.781 242.538 111.489 241.959 111.4C241.38 111.312 240.789 111.433 240.292 111.742C239.794 112.051 239.424 112.527 239.246 113.085H224.239V107.444C226.763 106.521 228.882 104.738 230.224 102.408C231.565 100.079 232.044 97.3512 231.575 94.7042C231.106 92.0571 229.72 89.6597 227.66 87.9325C225.601 86.2053 222.998 85.2587 220.31 85.2587C217.622 85.2587 215.019 86.2053 212.959 87.9325C210.899 89.6597 209.513 92.0571 209.045 94.7042C208.576 97.3512 209.054 100.079 210.396 102.408C211.737 104.738 213.856 106.521 216.381 107.444V113.085H201.363C201.189 112.525 200.82 112.045 200.322 111.733C199.824 111.422 199.231 111.299 198.651 111.388C198.07 111.477 197.541 111.771 197.159 112.217C196.777 112.663 196.568 113.232 196.57 113.819V119.476C196.587 120.109 196.848 120.711 197.298 121.156C197.749 121.601 198.353 121.855 198.986 121.866C199.62 121.876 200.232 121.641 200.696 121.211C201.161 120.78 201.441 120.187 201.478 119.555L216.365 121.755V122.321L216.345 124.557H214.302C214.001 124.557 213.714 124.677 213.502 124.889C213.289 125.101 213.17 125.389 213.17 125.689V126.674C213.17 126.974 213.289 127.262 213.502 127.474C213.714 127.686 214.001 127.805 214.302 127.805H216.25L215.433 168.821C214.548 174.426 210.561 179.371 201.855 177.255C193.149 175.138 187.188 166.129 187.188 166.129C188.323 165.09 189.55 164.157 190.855 163.342C182.772 157.627 178.885 144.149 178.885 144.149C172.076 160.188 179.645 173.027 179.645 173.027C180.525 171.696 181.623 170.522 182.893 169.554C184.464 172.802 188.058 181.435 203.259 189.109C218.461 196.783 220.299 204.531 220.299 204.531C220.299 204.531 222.149 196.783 237.345 189.109C252.541 181.435 256.156 172.802 257.727 169.554C258.997 170.522 260.095 171.696 260.975 173.027C260.975 173.027 268.508 160.188 261.719 144.149ZM213.956 96.7158C213.956 95.4599 214.328 94.2322 215.026 93.188C215.724 92.1439 216.716 91.3301 217.876 90.8498C219.037 90.3694 220.314 90.244 221.545 90.4894C222.777 90.7347 223.908 91.3399 224.796 92.2284C225.684 93.1168 226.288 94.2485 226.532 95.4804C226.777 96.7123 226.65 97.989 226.169 99.149C225.687 100.309 224.873 101.3 223.828 101.997C222.783 102.694 221.555 103.066 220.299 103.065C219.466 103.065 218.641 102.9 217.871 102.581C217.101 102.262 216.401 101.794 215.812 101.205C215.223 100.615 214.756 99.9152 214.437 99.145C214.119 98.3747 213.955 97.5493 213.956 96.7158Z" fill="url(#paint14_linear_1414_1198)"/>
<path d="M262.866 143.666C262.771 143.442 262.612 143.251 262.409 143.117C262.206 142.983 261.967 142.911 261.724 142.912H261.651C261.395 142.928 261.151 143.023 260.951 143.183C260.751 143.343 260.606 143.562 260.535 143.808C260.498 143.939 256.669 156.94 249.011 162.325C248.845 162.444 248.71 162.601 248.619 162.784C248.527 162.967 248.482 163.169 248.487 163.373C248.494 163.579 248.554 163.78 248.659 163.958C248.764 164.135 248.912 164.283 249.089 164.389C250.002 164.97 250.877 165.608 251.708 166.301C250.006 168.543 244.998 174.447 238.435 176.039C237.268 176.335 236.071 176.492 234.867 176.505C228.398 176.505 226.785 171.11 226.386 168.695L225.595 129.036H226.303C226.932 129.036 227.536 128.786 227.981 128.341C228.426 127.896 228.676 127.292 228.676 126.663V125.71C228.674 125.081 228.424 124.479 227.979 124.035C227.534 123.591 226.931 123.342 226.303 123.342H225.496V122.844L238.209 120.969C238.493 121.632 238.965 122.197 239.568 122.593C240.171 122.989 240.877 123.199 241.598 123.195C242.579 123.194 243.519 122.804 244.212 122.11C244.905 121.417 245.295 120.477 245.297 119.497V113.819C245.316 113.009 245.067 112.217 244.589 111.564C244.111 110.911 243.43 110.434 242.652 110.209C241.875 109.984 241.045 110.022 240.291 110.317C239.538 110.613 238.903 111.15 238.487 111.844H225.48V108.276C228.13 107.092 230.294 105.034 231.609 102.446C232.924 99.8582 233.311 96.8975 232.705 94.0586C232.1 91.2197 230.538 88.6746 228.281 86.8487C226.025 85.0227 223.21 84.0265 220.307 84.0265C217.405 84.0265 214.59 85.0227 212.333 86.8487C210.077 88.6746 208.515 91.2197 207.91 94.0586C207.304 96.8975 207.691 99.8582 209.006 102.446C210.321 105.034 212.484 107.092 215.135 108.276V111.844H202.149C201.732 111.15 201.098 110.613 200.344 110.317C199.591 110.022 198.761 109.984 197.983 110.209C197.206 110.434 196.525 110.911 196.047 111.564C195.568 112.217 195.32 113.009 195.339 113.819V119.476C195.338 120.327 195.631 121.152 196.167 121.813C196.704 122.473 197.452 122.928 198.286 123.101C199.119 123.274 199.986 123.154 200.742 122.762C201.497 122.37 202.094 121.729 202.432 120.948L215.129 122.823V123.321H214.307C213.678 123.321 213.076 123.57 212.631 124.014C212.186 124.458 211.935 125.06 211.934 125.689V126.673C211.934 127.303 212.184 127.906 212.629 128.351C213.074 128.796 213.678 129.046 214.307 129.046H214.993L214.202 168.705C213.804 171.12 212.185 176.516 205.721 176.516C204.518 176.502 203.32 176.346 202.154 176.05C195.569 174.452 190.577 168.554 188.88 166.317C189.709 165.62 190.584 164.979 191.499 164.4C191.68 164.294 191.83 164.144 191.938 163.965C192.045 163.785 192.105 163.581 192.112 163.372C192.119 163.163 192.074 162.956 191.979 162.769C191.885 162.582 191.745 162.422 191.573 162.304C183.946 156.919 180.116 143.918 180.08 143.787C180.009 143.541 179.864 143.322 179.664 143.162C179.464 143.002 179.22 142.907 178.964 142.891H178.891C178.647 142.89 178.409 142.962 178.206 143.096C178.003 143.23 177.844 143.421 177.749 143.645C170.798 160.068 178.273 173.085 178.582 173.63C178.689 173.813 178.842 173.965 179.025 174.073C179.209 174.18 179.417 174.238 179.629 174.242H179.671C179.871 174.244 180.069 174.197 180.246 174.106C180.424 174.015 180.577 173.882 180.693 173.719C181.226 172.939 181.831 172.211 182.5 171.545C184.501 175.61 189.048 183.299 202.725 190.203C217.067 197.474 219.084 204.755 219.105 204.808C219.173 205.075 219.327 205.312 219.544 205.482C219.762 205.652 220.029 205.745 220.305 205.746C220.582 205.744 220.85 205.65 221.068 205.478C221.285 205.306 221.439 205.067 221.504 204.797C221.504 204.735 223.537 197.464 237.9 190.193C251.588 183.331 256.161 175.62 258.136 171.555C258.805 172.222 259.41 172.95 259.943 173.729C260.058 173.892 260.211 174.025 260.389 174.117C260.567 174.208 260.765 174.255 260.964 174.253H261.006C261.215 174.246 261.418 174.186 261.597 174.079C261.775 173.972 261.924 173.821 262.028 173.64C262.353 173.106 269.817 160.088 262.866 143.666ZM260.964 173.001C260.084 171.669 258.987 170.495 257.717 169.528C256.145 172.776 252.552 181.408 237.35 189.082C222.149 196.757 220.305 204.504 220.305 204.504C220.305 204.504 218.445 196.783 203.254 189.093C188.063 181.403 184.449 172.802 182.898 169.554C181.628 170.521 180.53 171.695 179.65 173.027C179.65 173.027 172.102 160.188 178.891 144.148C178.891 144.148 182.778 157.626 190.86 163.341C189.556 164.157 188.328 165.09 187.193 166.128C187.193 166.128 193.134 175.138 201.861 177.254C203.122 177.581 204.418 177.757 205.721 177.778C211.777 177.778 214.695 173.546 215.438 168.847L216.256 127.831H214.307C214.007 127.831 213.719 127.712 213.507 127.5C213.295 127.287 213.175 127 213.175 126.7V125.71C213.175 125.409 213.295 125.122 213.507 124.909C213.719 124.697 214.007 124.578 214.307 124.578H216.35L216.397 122.341V121.776L201.51 119.575C201.472 120.207 201.192 120.801 200.728 121.231C200.264 121.662 199.651 121.896 199.018 121.886C198.385 121.876 197.78 121.622 197.33 121.177C196.88 120.732 196.619 120.13 196.601 119.497V113.819C196.6 113.231 196.809 112.663 197.191 112.217C197.572 111.771 198.102 111.477 198.682 111.388C199.263 111.299 199.856 111.422 200.353 111.733C200.851 112.045 201.221 112.524 201.394 113.085H216.35V107.444C213.825 106.52 211.706 104.738 210.365 102.408C209.023 100.079 208.545 97.3509 209.013 94.7039C209.482 92.0569 210.868 89.6594 212.928 87.9322C214.988 86.205 217.59 85.2584 220.279 85.2584C222.967 85.2584 225.569 86.205 227.629 87.9322C229.689 89.6594 231.075 92.0569 231.544 94.7039C232.012 97.3509 231.534 100.079 230.193 102.408C228.851 104.738 226.732 106.52 224.207 107.444V113.085H239.22C239.397 112.527 239.768 112.051 240.265 111.742C240.763 111.433 241.354 111.312 241.933 111.4C242.512 111.489 243.04 111.781 243.422 112.224C243.805 112.668 244.016 113.233 244.019 113.819V119.476C244.024 119.799 243.965 120.119 243.847 120.419C243.728 120.719 243.551 120.993 243.327 121.225C243.102 121.456 242.834 121.642 242.538 121.77C242.242 121.898 241.924 121.967 241.601 121.972C241.278 121.977 240.958 121.919 240.658 121.8C240.358 121.681 240.084 121.505 239.852 121.28C239.621 121.056 239.435 120.788 239.307 120.492C239.179 120.196 239.11 119.877 239.105 119.555L224.207 121.755V122.32L224.254 124.557H226.303C226.603 124.557 226.89 124.676 227.103 124.888C227.315 125.101 227.434 125.388 227.434 125.689V126.673C227.434 126.973 227.315 127.261 227.103 127.473C226.89 127.686 226.603 127.805 226.303 127.805H224.354L225.171 168.821C225.915 173.535 228.838 177.752 234.888 177.752C236.191 177.731 237.487 177.555 238.749 177.228C247.455 175.133 253.416 166.102 253.416 166.102C252.281 165.063 251.054 164.131 249.749 163.315C257.832 157.6 261.719 144.122 261.719 144.122C268.513 160.188 260.964 173.027 260.964 173.027V173.001Z" fill="white"/>
<path d="M224.252 115.086L239.27 114.892L224.252 116.574V115.086Z" fill="white"/>
<path d="M216.381 115.086L201.368 114.892L216.381 116.574V115.086Z" fill="white"/>
<path d="M230.495 97.4806C230.492 98.0959 230.433 98.7096 230.317 99.314C230.587 98.397 230.724 97.4463 230.726 96.4905C230.665 93.7753 229.543 91.1918 227.601 89.293C225.659 87.3942 223.051 86.3311 220.335 86.3311C217.62 86.3311 215.012 87.3942 213.07 89.293C211.128 91.1918 210.006 93.7753 209.945 96.4905C209.947 97.4463 210.084 98.397 210.354 99.314C210.238 98.7096 210.179 98.0959 210.176 97.4806C210.176 91.9437 214.723 87.1087 220.333 87.1087C225.943 87.1087 230.495 91.9437 230.495 97.4806Z" fill="white"/>
<path d="M261.843 146.417C262.812 153.598 262.678 160.884 261.445 168.025C265.384 157.705 261.843 146.417 261.843 146.417Z" fill="white"/>
<path d="M178.709 146.417C178.709 146.417 175.168 157.705 179.107 168.025C177.874 160.884 177.74 153.598 178.709 146.417Z" fill="white"/>
<path d="M238.349 178.894C233.922 180.083 228.59 179.507 225.992 175.29C225.135 173.967 224.527 172.499 224.195 170.958C224.355 172.56 224.834 174.113 225.604 175.526C228.108 180.241 233.818 181.052 238.569 179.801C244.855 178.171 250.009 173.572 253.498 168.276C249.464 173.033 244.446 177.318 238.349 178.894Z" fill="white"/>
<path d="M202.051 178.894C195.927 177.323 190.909 173.033 186.896 168.266C190.385 173.572 195.566 178.171 201.831 179.79C206.577 181.042 212.307 180.235 214.79 175.515C215.563 174.103 216.042 172.55 216.2 170.948C215.868 172.489 215.259 173.956 214.403 175.28C211.805 179.507 206.472 180.083 202.051 178.894Z" fill="white"/>
<path d="M279.728 212.608L269.251 196.856C269.058 196.566 268.806 196.32 268.512 196.132C268.218 195.944 267.889 195.819 267.544 195.765C267.2 195.711 266.848 195.729 266.51 195.817C266.173 195.906 265.858 196.063 265.585 196.28C259.173 201.357 252.01 205.406 244.354 208.281C236.609 211.072 228.437 212.49 220.205 212.472C213.92 212.49 207.662 211.66 201.599 210.004C194.06 207.88 186.909 204.566 180.415 200.188C178.597 198.978 176.774 197.663 175.009 196.285C174.735 196.069 174.42 195.912 174.082 195.823C173.745 195.735 173.393 195.718 173.048 195.773C172.704 195.827 172.374 195.953 172.081 196.141C171.787 196.329 171.536 196.576 171.342 196.867L160.866 212.613C160.529 213.12 160.386 213.731 160.464 214.334C160.542 214.938 160.835 215.493 161.29 215.897C165.25 219.397 186.701 236.851 220.284 237.285H220.315C253.903 236.861 275.354 219.397 279.309 215.897C279.765 215.493 280.059 214.936 280.136 214.331C280.213 213.726 280.068 213.114 279.728 212.608ZM278.481 214.965C274.175 218.768 253.254 235.625 220.289 236.039C187.33 235.625 166.408 218.752 162.102 214.965C161.87 214.76 161.72 214.477 161.68 214.17C161.641 213.862 161.714 213.551 161.887 213.294L172.364 197.548C172.479 197.374 172.634 197.232 172.817 197.132C172.999 197.033 173.204 196.979 173.411 196.977C173.7 196.978 173.98 197.076 174.208 197.254C175.989 198.651 177.817 199.971 179.692 201.214C186.299 205.661 193.569 209.031 201.232 211.199C215.575 215.064 230.757 214.452 244.741 209.444C252.521 206.526 259.799 202.413 266.313 197.254C266.451 197.144 266.611 197.064 266.782 197.019C266.954 196.974 267.132 196.965 267.307 196.992C267.482 197.02 267.649 197.084 267.798 197.179C267.947 197.275 268.074 197.4 268.172 197.548L278.649 213.294C278.829 213.545 278.912 213.852 278.883 214.159C278.854 214.466 278.715 214.752 278.492 214.965H278.481Z" fill="#21324B"/>
<path d="M210.402 157.223V155.578H209.145V154.436H206.394V152.011H204.613L203.393 154.436H202.743H202.44H200.795H198.06H197.908L197.013 155.578H195.677L194.388 157.223H189.999L192.791 160.712H211.57L213.078 157.223H210.402Z" fill="#21324B"/>
<path d="M177.203 218.776L181.888 208.352L184.092 209.342L180.224 217.95L184.693 219.958L183.876 221.775L177.203 218.776Z" fill="#21324B"/>
<path d="M208.124 222.923C207.834 224.135 207.357 225.111 206.694 225.851C206.035 226.592 205.257 227.093 204.36 227.352C203.469 227.609 202.533 227.62 201.552 227.386C200.564 227.149 199.732 226.712 199.054 226.076C198.376 225.439 197.912 224.641 197.659 223.681C197.407 222.722 197.426 221.638 197.715 220.43C198.005 219.218 198.48 218.241 199.14 217.5C199.799 216.759 200.575 216.26 201.467 216.003C202.359 215.742 203.299 215.73 204.287 215.967C205.268 216.202 206.097 216.638 206.774 217.274C207.457 217.908 207.924 218.705 208.176 219.664C208.432 220.625 208.415 221.711 208.124 222.923ZM205.742 222.352C205.93 221.567 205.971 220.877 205.865 220.281C205.762 219.687 205.533 219.2 205.176 218.82C204.82 218.44 204.357 218.182 203.789 218.046C203.221 217.91 202.692 217.93 202.202 218.107C201.712 218.284 201.285 218.614 200.921 219.097C200.56 219.581 200.286 220.215 200.098 221C199.91 221.785 199.867 222.475 199.969 223.07C200.075 223.665 200.307 224.153 200.663 224.533C201.02 224.913 201.482 225.171 202.05 225.307C202.618 225.443 203.147 225.422 203.637 225.245C204.127 225.068 204.553 224.738 204.913 224.254C205.278 223.771 205.554 223.137 205.742 222.352Z" fill="#21324B"/>
<path d="M222.17 219.302L221.604 230.717L219.19 230.598L219.757 219.183L222.17 219.302Z" fill="#21324B"/>
<path d="M239.537 228.615L235.486 229.02L234.343 217.591L238.428 217.183C239.578 217.068 240.59 217.198 241.465 217.572C242.341 217.943 243.044 218.532 243.576 219.34C244.111 220.147 244.438 221.143 244.557 222.33C244.676 223.521 244.553 224.566 244.188 225.467C243.827 226.367 243.251 227.088 242.46 227.63C241.672 228.171 240.698 228.499 239.537 228.615ZM237.695 226.708L239.23 226.555C239.944 226.483 240.532 226.297 240.994 225.995C241.46 225.689 241.789 225.256 241.981 224.696C242.176 224.131 242.231 223.423 242.146 222.571C242.061 221.727 241.868 221.049 241.565 220.538C241.266 220.027 240.86 219.669 240.347 219.465C239.834 219.261 239.221 219.195 238.507 219.266L236.966 219.42L237.695 226.708Z" fill="#21324B"/>
<path d="M259.733 213.613C259.573 213.191 259.296 212.903 258.905 212.751C258.513 212.598 258.037 212.598 257.476 212.749C257.096 212.852 256.789 212.993 256.556 213.171C256.322 213.346 256.16 213.546 256.07 213.771C255.984 213.994 255.973 214.225 256.037 214.462C256.083 214.661 256.171 214.822 256.301 214.945C256.434 215.068 256.596 215.161 256.787 215.225C256.977 215.285 257.188 215.326 257.421 215.348C257.654 215.366 257.897 215.37 258.153 215.359L259.208 215.328C259.718 215.305 260.199 215.33 260.65 215.401C261.1 215.472 261.508 215.598 261.874 215.781C262.239 215.964 262.551 216.211 262.808 216.523C263.07 216.834 263.264 217.218 263.392 217.677C263.571 218.353 263.557 218.985 263.349 219.573C263.145 220.156 262.76 220.671 262.194 221.117C261.631 221.558 260.901 221.9 260.003 222.142C259.112 222.383 258.299 222.456 257.565 222.362C256.834 222.266 256.211 222.001 255.697 221.566C255.185 221.126 254.812 220.512 254.58 219.723L256.837 219.113C256.962 219.476 257.152 219.756 257.406 219.954C257.662 220.146 257.965 220.263 258.315 220.303C258.668 220.339 259.045 220.303 259.447 220.194C259.843 220.087 260.17 219.937 260.43 219.744C260.693 219.549 260.878 219.328 260.985 219.079C261.091 218.831 261.108 218.574 261.036 218.308C260.969 218.06 260.839 217.872 260.647 217.743C260.457 217.613 260.207 217.526 259.894 217.483C259.586 217.44 259.217 217.424 258.789 217.435L257.506 217.458C256.515 217.483 255.684 217.328 255.016 216.992C254.347 216.657 253.904 216.081 253.688 215.264C253.503 214.597 253.524 213.966 253.748 213.369C253.976 212.772 254.368 212.248 254.924 211.797C255.481 211.346 256.161 211.012 256.966 210.795C257.785 210.573 258.537 210.52 259.223 210.635C259.913 210.75 260.496 211.01 260.972 211.417C261.448 211.824 261.781 212.355 261.969 213.009L259.733 213.613Z" fill="#21324B"/>
<path d="M127.037 288.943C124.012 288.943 121.454 288.959 119.362 288.991C117.27 289.039 115.621 289.128 114.414 289.257L114.365 285.419H116.224C116.594 285.419 116.94 285.419 117.262 285.419C117.6 285.403 117.93 285.371 118.252 285.322C118.332 284.775 118.388 284.228 118.42 283.681C118.469 283.118 118.493 282.538 118.493 281.943V261.04C118.493 260.509 118.469 260.043 118.42 259.64C118.372 259.222 118.308 258.852 118.227 258.53C117.922 258.466 117.6 258.433 117.262 258.433C116.94 258.417 116.594 258.409 116.224 258.409H113.641V255.151C115.057 254.99 116.449 254.877 117.817 254.813C119.201 254.732 120.625 254.692 122.089 254.692C123.924 254.692 125.589 254.716 127.086 254.765C128.598 254.813 129.934 254.918 131.092 255.078V258.409H128.486C128.116 258.409 127.762 258.417 127.424 258.433C127.102 258.433 126.78 258.466 126.458 258.53C126.297 259.125 126.217 259.962 126.217 261.04V285.419H133.337C134.222 285.419 134.971 285.298 135.582 285.057C136.21 284.799 136.749 284.421 137.199 283.922C137.65 283.424 138.036 282.796 138.358 282.04C138.68 281.283 138.977 280.398 139.251 279.385L143.04 279.891L142.099 288.943C140.699 288.991 139.323 289.031 137.972 289.064C136.636 289.096 135.3 289.112 133.965 289.112C132.549 289.112 131.253 289.08 130.079 289.015C128.92 288.967 127.906 288.943 127.037 288.943ZM194.317 271.999C194.317 274.782 193.923 277.269 193.135 279.457C192.362 281.629 191.244 283.48 189.78 285.009C188.315 286.521 186.545 287.68 184.469 288.484C182.394 289.273 180.068 289.667 177.494 289.667C174.871 289.667 172.513 289.265 170.422 288.46C168.346 287.639 166.576 286.473 165.111 284.96C163.663 283.432 162.553 281.581 161.78 279.409C161.008 277.22 160.622 274.75 160.622 271.999C160.622 269.183 161.008 266.68 161.78 264.492C162.569 262.287 163.687 260.429 165.136 258.916C166.6 257.404 168.37 256.253 170.446 255.465C172.538 254.676 174.887 254.282 177.494 254.282C180.101 254.282 182.442 254.684 184.518 255.489C186.593 256.277 188.356 257.436 189.804 258.965C191.268 260.477 192.386 262.336 193.159 264.54C193.931 266.729 194.317 269.215 194.317 271.999ZM168.877 272.071C168.877 276.544 169.593 279.972 171.025 282.353C172.457 284.735 174.613 285.926 177.494 285.926C178.862 285.926 180.076 285.644 181.138 285.081C182.201 284.518 183.094 283.665 183.818 282.522C184.558 281.364 185.113 279.916 185.483 278.178C185.869 276.424 186.062 274.364 186.062 271.999C186.062 267.348 185.322 263.856 183.842 261.523C182.361 259.174 180.245 257.999 177.494 257.999C174.758 257.999 172.634 259.166 171.122 261.499C169.625 263.816 168.877 267.34 168.877 272.071ZM213.588 289.257V285.419H216.147C216.517 285.419 216.863 285.419 217.185 285.419C217.523 285.403 217.853 285.371 218.175 285.322C218.352 284.695 218.44 283.834 218.44 282.74V261.861C218.44 261.056 218.424 260.397 218.392 259.882C218.36 259.367 218.287 258.916 218.175 258.53C217.869 258.466 217.547 258.433 217.209 258.433C216.887 258.417 216.541 258.409 216.171 258.409H213.588V255.151C215.005 254.99 216.396 254.877 217.764 254.813C219.148 254.732 220.572 254.692 222.037 254.692C223.871 254.692 225.528 254.716 227.009 254.765C228.505 254.813 229.833 254.918 230.991 255.078V258.409H228.409C228.039 258.409 227.685 258.417 227.347 258.433C227.025 258.433 226.703 258.466 226.381 258.53C226.301 258.852 226.236 259.214 226.188 259.616C226.156 260.002 226.14 260.477 226.14 261.04V282.691C226.14 283.255 226.156 283.753 226.188 284.188C226.236 284.606 226.301 284.984 226.381 285.322C226.703 285.371 227.025 285.403 227.347 285.419C227.685 285.419 228.039 285.419 228.409 285.419H230.967V289.257C229.455 289.128 228.031 289.039 226.695 288.991C225.359 288.959 224.088 288.943 222.881 288.943C221.417 288.943 219.929 288.959 218.416 288.991C216.903 289.039 215.294 289.128 213.588 289.257ZM261.945 258.482V285.371C262.106 285.403 262.259 285.419 262.403 285.419C262.564 285.419 262.725 285.419 262.886 285.419C265.284 285.419 267.344 285.194 269.065 284.743C270.803 284.292 272.227 283.544 273.338 282.498C274.448 281.436 275.269 280.052 275.8 278.347C276.331 276.625 276.596 274.501 276.596 271.974C276.596 269.641 276.411 267.622 276.041 265.916C275.671 264.21 275.067 262.802 274.231 261.692C273.41 260.582 272.324 259.761 270.972 259.23C269.621 258.683 267.971 258.409 266.024 258.409C265.38 258.409 264.721 258.425 264.045 258.458C263.385 258.474 262.685 258.482 261.945 258.482ZM261.824 288.943C259.716 288.943 257.64 288.959 255.597 288.991C253.553 289.039 251.485 289.08 249.394 289.112V285.588L251.228 285.564C251.614 285.564 251.992 285.556 252.362 285.54C252.733 285.507 253.095 285.451 253.449 285.371C253.803 285.161 254.028 284.807 254.124 284.309C254.221 283.81 254.269 283.206 254.269 282.498V261.909C254.269 261.266 254.237 260.694 254.173 260.196C254.124 259.681 254.06 259.214 253.98 258.796C253.61 258.731 253.215 258.699 252.797 258.699C252.395 258.683 251.976 258.675 251.542 258.675H249.128V255.344C251.59 255.119 254.269 254.95 257.166 254.837C260.062 254.708 263.272 254.644 266.796 254.644C269.548 254.644 272.034 254.95 274.255 255.561C276.475 256.157 278.366 257.146 279.927 258.53C281.504 259.898 282.719 261.692 283.572 263.913C284.425 266.133 284.851 268.869 284.851 272.119C284.851 274.485 284.586 276.544 284.055 278.298C283.54 280.036 282.799 281.533 281.834 282.788C280.885 284.027 279.718 285.049 278.334 285.853C276.966 286.642 275.43 287.269 273.724 287.736C272.018 288.187 270.16 288.5 268.148 288.677C266.153 288.854 264.045 288.943 261.824 288.943ZM312.763 262.658C312.763 263.414 312.892 264.082 313.149 264.661C313.407 265.224 313.761 265.731 314.211 266.182C314.678 266.616 315.233 267.018 315.877 267.388C316.537 267.742 317.261 268.072 318.049 268.378C319.626 269.006 321.179 269.665 322.708 270.357C324.236 271.033 325.604 271.805 326.811 272.674C328.018 273.527 328.991 274.509 329.732 275.619C330.472 276.713 330.842 278.001 330.842 279.481C330.842 281.074 330.512 282.506 329.852 283.778C329.209 285.033 328.308 286.095 327.149 286.964C325.99 287.833 324.607 288.5 322.997 288.967C321.388 289.434 319.634 289.667 317.736 289.667C316.915 289.667 316.054 289.619 315.153 289.522C314.252 289.442 313.351 289.313 312.449 289.136C311.564 288.959 310.696 288.742 309.843 288.484C309.006 288.211 308.225 287.905 307.501 287.567C306.793 287.229 306.166 286.851 305.619 286.433C305.088 285.998 304.685 285.531 304.412 285.033C304.46 284.566 304.549 284.059 304.677 283.512C304.806 282.965 304.951 282.41 305.112 281.847C305.289 281.267 305.458 280.696 305.619 280.133C305.796 279.57 305.957 279.031 306.101 278.516L311.508 279.988C311.621 280.599 311.709 281.155 311.774 281.653C311.838 282.152 311.91 282.603 311.991 283.005C312.071 283.407 312.168 283.769 312.281 284.091C312.393 284.397 312.562 284.671 312.787 284.912C313.061 285.153 313.407 285.354 313.825 285.515C314.244 285.66 314.686 285.781 315.153 285.877C315.619 285.958 316.086 286.022 316.553 286.071C317.036 286.103 317.47 286.119 317.856 286.119C318.613 286.119 319.304 285.982 319.932 285.708C320.576 285.435 321.123 285.065 321.573 284.598C322.04 284.132 322.394 283.576 322.635 282.933C322.893 282.289 323.022 281.605 323.022 280.881C323.022 279.883 322.82 279.022 322.418 278.298C322.016 277.558 321.445 276.898 320.704 276.319C319.98 275.74 319.103 275.209 318.073 274.726C317.044 274.227 315.901 273.72 314.646 273.205C313.117 272.578 311.758 271.934 310.567 271.274C309.376 270.599 308.37 269.875 307.55 269.102C306.745 268.314 306.126 267.461 305.691 266.544C305.273 265.626 305.064 264.605 305.064 263.478C305.064 262.126 305.377 260.887 306.005 259.761C306.632 258.619 307.55 257.645 308.756 256.84C309.963 256.036 311.444 255.408 313.198 254.958C314.952 254.507 316.963 254.282 319.232 254.282C320.31 254.282 321.316 254.362 322.249 254.523C323.182 254.668 324.059 254.869 324.88 255.127C325.701 255.384 326.473 255.674 327.197 255.996C327.937 256.317 328.646 256.647 329.321 256.985C329.289 258.144 329.152 259.286 328.911 260.413C328.67 261.523 328.436 262.617 328.211 263.695L324.011 263.72C323.931 262.883 323.802 262.126 323.625 261.451C323.448 260.759 323.086 260.171 322.539 259.689C322.217 259.415 321.823 259.182 321.356 258.989C320.906 258.779 320.431 258.611 319.932 258.482C319.449 258.353 318.967 258.265 318.484 258.216C318.017 258.152 317.615 258.12 317.277 258.12C316.617 258.12 316.006 258.224 315.442 258.433C314.895 258.627 314.421 258.916 314.018 259.302C313.632 259.689 313.326 260.163 313.101 260.727C312.876 261.29 312.763 261.933 312.763 262.658Z" fill="#3F5260"/>
<line x1="113" y1="306.162" x2="125.765" y2="306.162" stroke="#3F5260" stroke-width="1.10894"/>
<line x1="320.235" y1="307.162" x2="333" y2="307.162" stroke="#3F5260" stroke-width="1.10894"/>
<path d="M135.32 312L132.353 303.394H132.29C132.304 303.586 132.32 303.85 132.339 304.183C132.358 304.517 132.374 304.874 132.388 305.255C132.402 305.635 132.409 305.999 132.409 306.347V312H130.873V301.695H133.248L136.103 309.921H136.145L139.098 301.695H141.467V312H139.853V306.263C139.853 305.948 139.857 305.607 139.867 305.241C139.881 304.874 139.895 304.526 139.909 304.197C139.928 303.868 139.942 303.605 139.951 303.408H139.895L136.815 312H135.32ZM147.792 304.049C148.779 304.049 149.524 304.268 150.026 304.705C150.534 305.142 150.788 305.823 150.788 306.749V312H149.61L149.293 310.893H149.237C149.016 311.175 148.788 311.408 148.553 311.591C148.318 311.774 148.046 311.911 147.736 312C147.43 312.094 147.057 312.141 146.615 312.141C146.15 312.141 145.734 312.056 145.367 311.887C145.001 311.713 144.712 311.45 144.5 311.098C144.289 310.745 144.183 310.299 144.183 309.759C144.183 308.955 144.482 308.351 145.078 307.947C145.68 307.543 146.587 307.32 147.799 307.278L149.152 307.228V306.819C149.152 306.279 149.025 305.894 148.772 305.663C148.523 305.433 148.17 305.318 147.714 305.318C147.324 305.318 146.946 305.374 146.58 305.487C146.213 305.6 145.856 305.739 145.508 305.903L144.973 304.733C145.353 304.531 145.786 304.367 146.27 304.24C146.758 304.113 147.266 304.049 147.792 304.049ZM149.145 308.271L148.137 308.307C147.31 308.335 146.73 308.476 146.396 308.73C146.063 308.983 145.896 309.331 145.896 309.773C145.896 310.158 146.011 310.44 146.241 310.618C146.472 310.792 146.775 310.879 147.151 310.879C147.724 310.879 148.198 310.717 148.574 310.393C148.955 310.064 149.145 309.582 149.145 308.948V308.271ZM157.782 304.049C157.914 304.049 158.057 304.056 158.212 304.07C158.368 304.085 158.501 304.103 158.614 304.127L158.459 305.678C158.36 305.649 158.238 305.628 158.093 305.614C157.952 305.6 157.825 305.593 157.712 305.593C157.416 305.593 157.134 305.642 156.866 305.741C156.598 305.835 156.361 305.981 156.154 306.178C155.948 306.371 155.785 306.613 155.668 306.904C155.55 307.195 155.492 307.534 155.492 307.919V312H153.828V304.197H155.125L155.351 305.572H155.428C155.583 305.295 155.776 305.041 156.006 304.811C156.237 304.58 156.5 304.397 156.796 304.261C157.096 304.12 157.425 304.049 157.782 304.049ZM162.437 304.197V312H160.781V304.197H162.437ZM161.62 301.209C161.873 301.209 162.092 301.277 162.275 301.413C162.463 301.549 162.557 301.784 162.557 302.118C162.557 302.447 162.463 302.682 162.275 302.823C162.092 302.959 161.873 303.027 161.62 303.027C161.357 303.027 161.133 302.959 160.95 302.823C160.772 302.682 160.682 302.447 160.682 302.118C160.682 301.784 160.772 301.549 160.95 301.413C161.133 301.277 161.357 301.209 161.62 301.209ZM169.601 304.049C170.48 304.049 171.164 304.277 171.652 304.733C172.146 305.184 172.393 305.91 172.393 306.911V312H170.736V307.221C170.736 306.615 170.612 306.162 170.363 305.861C170.114 305.555 169.728 305.403 169.207 305.403C168.45 305.403 167.924 305.635 167.628 306.1C167.336 306.566 167.191 307.24 167.191 308.123V312H165.534V304.197H166.824L167.057 305.255H167.149C167.318 304.982 167.527 304.759 167.776 304.585C168.03 304.406 168.312 304.273 168.622 304.183C168.936 304.094 169.263 304.049 169.601 304.049ZM178.542 304.049C179.237 304.049 179.834 304.193 180.332 304.479C180.83 304.766 181.213 305.172 181.481 305.699C181.749 306.225 181.883 306.855 181.883 307.588V308.476H176.674C176.693 309.232 176.895 309.815 177.28 310.224C177.67 310.633 178.215 310.837 178.915 310.837C179.413 310.837 179.86 310.79 180.254 310.696C180.654 310.597 181.065 310.454 181.488 310.266V311.612C181.098 311.796 180.701 311.93 180.297 312.014C179.893 312.099 179.409 312.141 178.845 312.141C178.079 312.141 177.404 311.993 176.822 311.697C176.244 311.396 175.79 310.95 175.461 310.358C175.137 309.766 174.975 309.03 174.975 308.152C174.975 307.278 175.123 306.535 175.419 305.924C175.715 305.313 176.131 304.848 176.667 304.529C177.202 304.209 177.827 304.049 178.542 304.049ZM178.542 305.297C178.02 305.297 177.597 305.466 177.273 305.804C176.953 306.143 176.765 306.638 176.709 307.292H180.261C180.257 306.902 180.191 306.556 180.064 306.255C179.942 305.955 179.754 305.72 179.5 305.551C179.251 305.381 178.932 305.297 178.542 305.297ZM195.062 309.195C195.062 309.806 194.911 310.332 194.611 310.774C194.315 311.215 193.887 311.554 193.328 311.789C192.773 312.023 192.111 312.141 191.34 312.141C190.964 312.141 190.605 312.12 190.262 312.078C189.919 312.035 189.595 311.974 189.289 311.894C188.988 311.81 188.714 311.709 188.464 311.591V309.998C188.883 310.181 189.35 310.348 189.867 310.499C190.384 310.644 190.91 310.717 191.446 310.717C191.883 310.717 192.245 310.661 192.531 310.548C192.823 310.431 193.039 310.266 193.18 310.055C193.321 309.838 193.391 309.587 193.391 309.3C193.391 308.995 193.309 308.737 193.145 308.525C192.98 308.314 192.731 308.121 192.398 307.947C192.069 307.769 191.655 307.578 191.157 307.376C190.819 307.24 190.494 307.085 190.184 306.911C189.879 306.737 189.606 306.533 189.367 306.298C189.127 306.063 188.937 305.786 188.796 305.466C188.659 305.142 188.591 304.761 188.591 304.324C188.591 303.742 188.73 303.243 189.007 302.83C189.289 302.416 189.684 302.099 190.191 301.878C190.704 301.658 191.3 301.547 191.982 301.547C192.522 301.547 193.03 301.604 193.504 301.716C193.983 301.829 194.453 301.989 194.914 302.196L194.378 303.556C193.955 303.382 193.544 303.243 193.145 303.14C192.75 303.037 192.346 302.985 191.932 302.985C191.575 302.985 191.272 303.039 191.023 303.147C190.774 303.255 190.584 303.408 190.452 303.605C190.325 303.798 190.262 304.028 190.262 304.296C190.262 304.597 190.335 304.851 190.48 305.057C190.631 305.259 190.861 305.445 191.171 305.614C191.486 305.783 191.89 305.971 192.383 306.178C192.952 306.413 193.434 306.66 193.828 306.918C194.228 307.176 194.533 307.487 194.745 307.848C194.956 308.206 195.062 308.654 195.062 309.195ZM200.711 304.049C201.406 304.049 202.003 304.193 202.501 304.479C202.999 304.766 203.382 305.172 203.65 305.699C203.918 306.225 204.051 306.855 204.051 307.588V308.476H198.843C198.861 309.232 199.064 309.815 199.449 310.224C199.839 310.633 200.384 310.837 201.084 310.837C201.582 310.837 202.029 310.79 202.423 310.696C202.823 310.597 203.234 310.454 203.657 310.266V311.612C203.267 311.796 202.87 311.93 202.466 312.014C202.061 312.099 201.577 312.141 201.014 312.141C200.248 312.141 199.573 311.993 198.991 311.697C198.413 311.396 197.959 310.95 197.63 310.358C197.306 309.766 197.144 309.03 197.144 308.152C197.144 307.278 197.292 306.535 197.588 305.924C197.884 305.313 198.3 304.848 198.836 304.529C199.371 304.209 199.996 304.049 200.711 304.049ZM200.711 305.297C200.189 305.297 199.766 305.466 199.442 305.804C199.122 306.143 198.934 306.638 198.878 307.292H202.43C202.426 306.902 202.36 306.556 202.233 306.255C202.111 305.955 201.923 305.72 201.669 305.551C201.42 305.381 201.101 305.297 200.711 305.297ZM210.595 304.049C210.727 304.049 210.87 304.056 211.025 304.07C211.18 304.085 211.314 304.103 211.427 304.127L211.272 305.678C211.173 305.649 211.051 305.628 210.905 305.614C210.764 305.6 210.638 305.593 210.525 305.593C210.229 305.593 209.947 305.642 209.679 305.741C209.411 305.835 209.174 305.981 208.967 306.178C208.76 306.371 208.598 306.613 208.481 306.904C208.363 307.195 208.305 307.534 208.305 307.919V312H206.641V304.197H207.938L208.164 305.572H208.241C208.396 305.295 208.589 305.041 208.819 304.811C209.049 304.58 209.312 304.397 209.608 304.261C209.909 304.12 210.238 304.049 210.595 304.049ZM215.377 312L212.41 304.197H214.165L215.772 308.779C215.875 309.07 215.969 309.385 216.054 309.723C216.138 310.062 216.197 310.346 216.23 310.576H216.286C216.319 310.337 216.383 310.05 216.477 309.716C216.571 309.378 216.667 309.065 216.766 308.779L218.373 304.197H220.121L217.153 312H215.377ZM223.683 304.197V312H222.026V304.197H223.683ZM222.865 301.209C223.119 301.209 223.338 301.277 223.521 301.413C223.709 301.549 223.803 301.784 223.803 302.118C223.803 302.447 223.709 302.682 223.521 302.823C223.338 302.959 223.119 303.027 222.865 303.027C222.602 303.027 222.379 302.959 222.196 302.823C222.017 302.682 221.928 302.447 221.928 302.118C221.928 301.784 222.017 301.549 222.196 301.413C222.379 301.277 222.602 301.209 222.865 301.209ZM229.924 312.141C229.186 312.141 228.547 311.998 228.006 311.711C227.466 311.424 227.05 310.985 226.759 310.393C226.468 309.801 226.322 309.049 226.322 308.137C226.322 307.188 226.482 306.413 226.801 305.811C227.121 305.21 227.562 304.766 228.126 304.479C228.695 304.193 229.346 304.049 230.079 304.049C230.544 304.049 230.964 304.096 231.34 304.19C231.721 304.28 232.043 304.39 232.306 304.522L231.813 305.847C231.526 305.729 231.232 305.631 230.932 305.551C230.631 305.471 230.342 305.431 230.065 305.431C229.609 305.431 229.228 305.532 228.923 305.734C228.622 305.936 228.396 306.237 228.246 306.636C228.1 307.036 228.028 307.531 228.028 308.123C228.028 308.697 228.103 309.181 228.253 309.575C228.403 309.965 228.627 310.261 228.923 310.463C229.219 310.661 229.583 310.759 230.015 310.759C230.443 310.759 230.826 310.708 231.164 310.604C231.502 310.501 231.822 310.367 232.123 310.203V311.641C231.827 311.81 231.51 311.934 231.171 312.014C230.833 312.099 230.417 312.141 229.924 312.141ZM237.785 304.049C238.481 304.049 239.078 304.193 239.576 304.479C240.074 304.766 240.457 305.172 240.725 305.699C240.993 306.225 241.126 306.855 241.126 307.588V308.476H235.918C235.936 309.232 236.138 309.815 236.524 310.224C236.914 310.633 237.459 310.837 238.159 310.837C238.657 310.837 239.104 310.79 239.498 310.696C239.898 310.597 240.309 310.454 240.732 310.266V311.612C240.342 311.796 239.945 311.93 239.541 312.014C239.136 312.099 238.652 312.141 238.089 312.141C237.323 312.141 236.648 311.993 236.066 311.697C235.488 311.396 235.034 310.95 234.705 310.358C234.381 309.766 234.219 309.03 234.219 308.152C234.219 307.278 234.367 306.535 234.663 305.924C234.959 305.313 235.375 304.848 235.911 304.529C236.446 304.209 237.071 304.049 237.785 304.049ZM237.785 305.297C237.264 305.297 236.841 305.466 236.517 305.804C236.197 306.143 236.009 306.638 235.953 307.292H239.505C239.501 306.902 239.435 306.556 239.308 306.255C239.186 305.955 238.998 305.72 238.744 305.551C238.495 305.381 238.175 305.297 237.785 305.297ZM248.96 309.773C248.96 310.285 248.836 310.717 248.587 311.07C248.338 311.422 247.973 311.69 247.494 311.873C247.019 312.052 246.437 312.141 245.746 312.141C245.201 312.141 244.731 312.101 244.336 312.021C243.946 311.946 243.577 311.828 243.23 311.669V310.238C243.601 310.412 244.017 310.562 244.477 310.689C244.942 310.816 245.382 310.879 245.795 310.879C246.34 310.879 246.733 310.795 246.972 310.626C247.212 310.452 247.332 310.221 247.332 309.935C247.332 309.766 247.283 309.615 247.184 309.484C247.09 309.347 246.911 309.209 246.648 309.068C246.39 308.922 246.009 308.748 245.506 308.546C245.013 308.349 244.597 308.152 244.259 307.954C243.92 307.757 243.664 307.52 243.491 307.242C243.317 306.96 243.23 306.601 243.23 306.164C243.23 305.473 243.502 304.949 244.047 304.592C244.597 304.23 245.323 304.049 246.225 304.049C246.705 304.049 247.156 304.099 247.579 304.197C248.006 304.291 248.424 304.43 248.833 304.613L248.312 305.861C247.959 305.706 247.604 305.579 247.247 305.48C246.895 305.377 246.535 305.325 246.169 305.325C245.741 305.325 245.415 305.391 245.189 305.522C244.968 305.654 244.858 305.842 244.858 306.086C244.858 306.27 244.912 306.425 245.02 306.552C245.128 306.678 245.314 306.805 245.577 306.932C245.845 307.059 246.216 307.216 246.691 307.404C247.156 307.583 247.557 307.771 247.896 307.968C248.239 308.161 248.502 308.398 248.685 308.68C248.868 308.962 248.96 309.326 248.96 309.773ZM259.109 301.695C260.438 301.695 261.409 301.968 262.02 302.513C262.63 303.058 262.936 303.821 262.936 304.804C262.936 305.25 262.865 305.675 262.724 306.079C262.588 306.479 262.363 306.833 262.048 307.144C261.733 307.449 261.317 307.691 260.8 307.87C260.288 308.048 259.656 308.137 258.904 308.137H257.805V312H256.113V301.695H259.109ZM258.996 303.098H257.805V306.728H258.728C259.259 306.728 259.71 306.667 260.081 306.544C260.452 306.418 260.734 306.218 260.927 305.945C261.12 305.673 261.216 305.313 261.216 304.867C261.216 304.27 261.035 303.826 260.673 303.535C260.316 303.243 259.757 303.098 258.996 303.098ZM273.356 301.695L269.755 312H267.964L264.362 301.695H266.096L268.267 308.152C268.333 308.339 268.404 308.567 268.479 308.835C268.559 309.103 268.631 309.373 268.697 309.646C268.768 309.918 268.822 310.16 268.859 310.372C268.897 310.16 268.949 309.918 269.014 309.646C269.085 309.373 269.158 309.103 269.233 308.835C269.308 308.567 269.379 308.337 269.444 308.144L271.622 301.695H273.356ZM279.005 312H277.306V303.133H274.29V301.695H282.015V303.133H279.005V312ZM288.787 312V301.695H290.478V310.562H294.856V312H288.787ZM300.934 312H299.235V303.133H296.219V301.695H303.944V303.133H300.934V312ZM314.611 306.749C314.611 307.91 314.395 308.88 313.963 309.66C313.53 310.435 312.903 311.02 312.081 311.415C311.258 311.805 310.267 312 309.106 312H306.244V301.695H309.416C310.483 301.695 311.404 301.888 312.179 302.273C312.955 302.654 313.554 303.22 313.977 303.972C314.4 304.719 314.611 305.645 314.611 306.749ZM312.849 306.798C312.849 305.952 312.715 305.257 312.447 304.712C312.184 304.167 311.794 303.763 311.277 303.5C310.765 303.232 310.133 303.098 309.381 303.098H307.936V310.583H309.134C310.38 310.583 311.31 310.266 311.926 309.632C312.541 308.997 312.849 308.053 312.849 306.798Z" fill="#414141"/>
<defs>
<linearGradient id="paint0_linear_1414_1198" x1="220.15" y1="162.053" x2="220.15" y2="214.876" gradientUnits="userSpaceOnUse">
<stop stop-color="#9EF1F8"/>
<stop offset="1" stop-color="#558FD5"/>
</linearGradient>
<linearGradient id="paint1_linear_1414_1198" x1="226.783" y1="222.346" x2="212.482" y2="80.1051" gradientUnits="userSpaceOnUse">
<stop stop-color="#21324B"/>
<stop offset="0.28" stop-color="#243650"/>
<stop offset="0.62" stop-color="#2E425F"/>
<stop offset="1" stop-color="#3D5578"/>
</linearGradient>
<linearGradient id="paint2_linear_1414_1198" x1="159.777" y1="229.082" x2="145.476" y2="86.8362" gradientUnits="userSpaceOnUse">
<stop stop-color="#21324B"/>
<stop offset="0.28" stop-color="#243650"/>
<stop offset="0.62" stop-color="#2E425F"/>
<stop offset="1" stop-color="#3D5578"/>
</linearGradient>
<linearGradient id="paint3_linear_1414_1198" x1="144.91" y1="230.575" x2="130.609" y2="88.3345" gradientUnits="userSpaceOnUse">
<stop stop-color="#21324B"/>
<stop offset="0.28" stop-color="#243650"/>
<stop offset="0.62" stop-color="#2E425F"/>
<stop offset="1" stop-color="#3D5578"/>
</linearGradient>
<linearGradient id="paint4_linear_1414_1198" x1="171.697" y1="227.883" x2="157.396" y2="85.6419" gradientUnits="userSpaceOnUse">
<stop stop-color="#21324B"/>
<stop offset="0.28" stop-color="#243650"/>
<stop offset="0.62" stop-color="#2E425F"/>
<stop offset="1" stop-color="#3D5578"/>
</linearGradient>
<linearGradient id="paint5_linear_1414_1198" x1="160.367" y1="229.025" x2="146.067" y2="86.7786" gradientUnits="userSpaceOnUse">
<stop stop-color="#21324B"/>
<stop offset="0.28" stop-color="#243650"/>
<stop offset="0.62" stop-color="#2E425F"/>
<stop offset="1" stop-color="#3D5578"/>
</linearGradient>
<linearGradient id="paint6_linear_1414_1198" x1="209.731" y1="224.064" x2="195.43" y2="81.8182" gradientUnits="userSpaceOnUse">
<stop stop-color="#21324B"/>
<stop offset="0.28" stop-color="#243650"/>
<stop offset="0.62" stop-color="#2E425F"/>
<stop offset="1" stop-color="#3D5578"/>
</linearGradient>
<linearGradient id="paint7_linear_1414_1198" x1="205.934" y1="224.442" x2="191.633" y2="82.2007" gradientUnits="userSpaceOnUse">
<stop stop-color="#21324B"/>
<stop offset="0.28" stop-color="#243650"/>
<stop offset="0.62" stop-color="#2E425F"/>
<stop offset="1" stop-color="#3D5578"/>
</linearGradient>
<linearGradient id="paint8_linear_1414_1198" x1="256.892" y1="219.318" x2="242.591" y2="77.0775" gradientUnits="userSpaceOnUse">
<stop stop-color="#21324B"/>
<stop offset="0.28" stop-color="#243650"/>
<stop offset="0.62" stop-color="#2E425F"/>
<stop offset="1" stop-color="#3D5578"/>
</linearGradient>
<linearGradient id="paint9_linear_1414_1198" x1="262.686" y1="218.737" x2="248.39" y2="76.496" gradientUnits="userSpaceOnUse">
<stop stop-color="#21324B"/>
<stop offset="0.28" stop-color="#243650"/>
<stop offset="0.62" stop-color="#2E425F"/>
<stop offset="1" stop-color="#3D5578"/>
</linearGradient>
<linearGradient id="paint10_linear_1414_1198" x1="288.395" y1="216.155" x2="274.095" y2="73.9085" gradientUnits="userSpaceOnUse">
<stop stop-color="#21324B"/>
<stop offset="0.28" stop-color="#243650"/>
<stop offset="0.62" stop-color="#2E425F"/>
<stop offset="1" stop-color="#3D5578"/>
</linearGradient>
<linearGradient id="paint11_linear_1414_1198" x1="301.435" y1="214.84" x2="287.14" y2="72.5988" gradientUnits="userSpaceOnUse">
<stop stop-color="#21324B"/>
<stop offset="0.28" stop-color="#243650"/>
<stop offset="0.62" stop-color="#2E425F"/>
<stop offset="1" stop-color="#3D5578"/>
</linearGradient>
<linearGradient id="paint12_linear_1414_1198" x1="291.666" y1="215.824" x2="277.366" y2="73.5833" gradientUnits="userSpaceOnUse">
<stop stop-color="#21324B"/>
<stop offset="0.28" stop-color="#243650"/>
<stop offset="0.62" stop-color="#2E425F"/>
<stop offset="1" stop-color="#3D5578"/>
</linearGradient>
<linearGradient id="paint13_linear_1414_1198" x1="305.678" y1="214.415" x2="291.377" y2="72.1741" gradientUnits="userSpaceOnUse">
<stop stop-color="#21324B"/>
<stop offset="0.28" stop-color="#243650"/>
<stop offset="0.62" stop-color="#2E425F"/>
<stop offset="1" stop-color="#3D5578"/>
</linearGradient>
<linearGradient id="paint14_linear_1414_1198" x1="231.908" y1="202.75" x2="203.558" y2="93.1223" gradientUnits="userSpaceOnUse">
<stop stop-color="#21324B"/>
<stop offset="0.28" stop-color="#243650"/>
<stop offset="0.62" stop-color="#2E425F"/>
<stop offset="1" stop-color="#3D5578"/>
</linearGradient>
</defs>
</svg>
